<svg xmlns="http://www.w3.org/2000/svg" xmlns:xlink="http://www.w3.org/1999/xlink" width="302" height="302" viewBox="0 0 302 302"><defs><style>.a{fill:none;stroke:#707070;}.b{clip-path:url(#a);}.c{fill:#f41e1e;}.d{fill:#ff7600;}.e{fill:#fff;}</style><clipPath id="a"><rect class="a" width="302" height="302" transform="translate(161 939)"/></clipPath></defs><g class="b" transform="translate(-161 -939)"><rect class="c" width="170" height="9" transform="translate(203 969)"/><rect class="d" width="170" height="9" transform="translate(249 1181)"/><g transform="translate(43 -23.5)"><path class="e" d="M17.592-18.244A16.911,16.911,0,0,1,24.673-16.9a9.893,9.893,0,0,1,4.464,3.868A11.586,11.586,0,0,1,30.677-6.9,11.586,11.586,0,0,1,29.138-.759a9.893,9.893,0,0,1-4.464,3.868A16.911,16.911,0,0,1,17.592,4.45H10.87V15.8H2.044V-18.244ZM16.207-2.2a6.461,6.461,0,0,0,4.182-1.161A4.309,4.309,0,0,0,21.8-6.9a4.309,4.309,0,0,0-1.411-3.533,6.461,6.461,0,0,0-4.182-1.161H10.87V-2.2Zm13.136,18,11.9-34.042H51.818L63.672,15.8H54.589L47.97-6.072l-1.488-5.364h-.1L44.994-6.123,38.22,15.8Zm7.748-7.685V2.078H55.923V8.113ZM80.708-18.76a22.021,22.021,0,0,1,8.338,1.47,17.653,17.653,0,0,1,6.286,4.307L91.073-7.258a15.414,15.414,0,0,0-4.747-3.482A13.744,13.744,0,0,0,80.554-11.9a9.522,9.522,0,0,0-3.079.413,3.357,3.357,0,0,0-1.693,1.135A2.778,2.778,0,0,0,75.269-8.7a2.222,2.222,0,0,0,1,1.831,8.969,8.969,0,0,0,3.258,1.264l5.7,1.289q5.08,1.186,7.44,3.456a7.985,7.985,0,0,1,2.36,6.035,10,10,0,0,1-1.847,6.112A11.206,11.206,0,0,1,88.1,15.05a20.184,20.184,0,0,1-7.389,1.264,27.3,27.3,0,0,1-6.466-.748A21.52,21.52,0,0,1,68.7,13.425a17.347,17.347,0,0,1-4.156-3.2L68.8,4.3a13.435,13.435,0,0,0,3.156,2.656,17.083,17.083,0,0,0,4.105,1.831,15.7,15.7,0,0,0,4.541.671,10.624,10.624,0,0,0,3-.361,3.407,3.407,0,0,0,1.77-1.083,2.683,2.683,0,0,0,.564-1.7,2.455,2.455,0,0,0-.77-1.831,6.53,6.53,0,0,0-2.925-1.264L75.987,1.82A23.421,23.421,0,0,1,70.881.04a8.99,8.99,0,0,1-3.515-2.992,8.2,8.2,0,0,1-1.283-4.719,9.721,9.721,0,0,1,1.745-5.7,11.665,11.665,0,0,1,5.029-3.946A19.414,19.414,0,0,1,80.708-18.76Zm33.1,0a22.021,22.021,0,0,1,8.338,1.47,17.653,17.653,0,0,1,6.286,4.307l-4.259,5.725a15.413,15.413,0,0,0-4.747-3.482,13.744,13.744,0,0,0-5.773-1.161,9.522,9.522,0,0,0-3.079.413,3.357,3.357,0,0,0-1.693,1.135,2.778,2.778,0,0,0-.513,1.651,2.222,2.222,0,0,0,1,1.831,8.969,8.969,0,0,0,3.258,1.264l5.7,1.289q5.08,1.186,7.441,3.456a7.985,7.985,0,0,1,2.36,6.035,10,10,0,0,1-1.847,6.112,11.206,11.206,0,0,1-5.08,3.765,20.184,20.184,0,0,1-7.389,1.264,27.3,27.3,0,0,1-6.465-.748,21.52,21.52,0,0,1-5.542-2.141,17.347,17.347,0,0,1-4.156-3.2L101.9,4.3a13.436,13.436,0,0,0,3.156,2.656,17.083,17.083,0,0,0,4.105,1.831,15.7,15.7,0,0,0,4.541.671,10.625,10.625,0,0,0,3-.361,3.407,3.407,0,0,0,1.77-1.083,2.683,2.683,0,0,0,.564-1.7,2.455,2.455,0,0,0-.77-1.831,6.53,6.53,0,0,0-2.925-1.264l-6.26-1.393A23.42,23.42,0,0,1,103.979.04a8.99,8.99,0,0,1-3.515-2.992,8.2,8.2,0,0,1-1.283-4.719,9.721,9.721,0,0,1,1.745-5.7,11.664,11.664,0,0,1,5.029-3.946A19.414,19.414,0,0,1,113.805-18.76Zm28.684.516V15.8h-8.826V-18.244Zm22.681-.516a17.8,17.8,0,0,1,8.852,2.089,14.039,14.039,0,0,1,5.722,6.009,20.549,20.549,0,0,1,2,9.439,20.549,20.549,0,0,1-2,9.439,14.039,14.039,0,0,1-5.722,6.009,17.8,17.8,0,0,1-8.852,2.089,17.945,17.945,0,0,1-8.877-2.089,14,14,0,0,1-5.747-6.009,20.549,20.549,0,0,1-2-9.439,20.549,20.549,0,0,1,2-9.439,14,14,0,0,1,5.747-6.009A17.945,17.945,0,0,1,165.17-18.76Zm0,6.963a7.063,7.063,0,0,0-4.156,1.186,7.231,7.231,0,0,0-2.566,3.533,16.949,16.949,0,0,0-.872,5.854,17,17,0,0,0,.872,5.828,7.228,7.228,0,0,0,2.566,3.559A7.063,7.063,0,0,0,165.17,9.35,6.945,6.945,0,0,0,169.3,8.164a7.3,7.3,0,0,0,2.54-3.559,17,17,0,0,0,.872-5.828,16.948,16.948,0,0,0-.872-5.854,7.3,7.3,0,0,0-2.54-3.533A6.945,6.945,0,0,0,165.17-11.8Zm53.161-6.447V15.8h-9.8L198.011-2.616l-2.566-5.055h-.051l.205,6.293V15.8h-7.8V-18.244h9.8L208.12.169l2.566,5.055h.051l-.205-6.293V-18.244Z" transform="translate(158.956 981.26)"/><g transform="translate(161 1003.604)"><path class="e" d="M24.894,20.3H63.951V35.914H4.6V-41.58h20.3ZM75.633,35.914V-41.58h60.65v15.616H95.928V-10.23h32.095V4.447H95.928V20.3h41.889V35.914ZM183.127-41.58q18.289,0,28.024,10.1t9.735,28.649q0,18.552-9.735,28.649t-28.024,10.1H150.088V-41.58Zm-2.006,62.23q9.912,0,14.455-5.929t4.543-17.554q0-11.624-4.543-17.554t-14.455-5.929H170.384V20.65Z" transform="translate(-4.599 41.58)"/><path class="e" d="M106.2-58.6V7.716q0,23.746-12.728,35.535T55.8,55.04q-24.772,0-37.585-11.788T5.4,7.716V-58.6H34.956V8.225q0,12.043,5.211,17.979T55.8,32.141q10.592,0,15.8-5.937T76.812,8.225V-58.6ZM173-60.3q15.718,0,27.762,4.834A58.8,58.8,0,0,1,221.687-41.3l-14.18,18.827a51.293,51.293,0,0,0-15.8-11.449,46.249,46.249,0,0,0-19.22-3.816,32.071,32.071,0,0,0-10.251,1.357,11.181,11.181,0,0,0-5.638,3.732,9.059,9.059,0,0,0-1.708,5.428,7.283,7.283,0,0,0,3.331,6.021q3.331,2.459,10.849,4.156l18.964,4.24q16.913,3.9,24.772,11.364T220.662,18.4q0,11.873-6.15,20.1A37.274,37.274,0,0,1,197.6,50.884,67.949,67.949,0,0,1,173,55.04a91.981,91.981,0,0,1-21.526-2.459,72.186,72.186,0,0,1-18.451-7.039,57.671,57.671,0,0,1-13.838-10.516l14.18-19.506a44.6,44.6,0,0,0,10.507,8.735,57.229,57.229,0,0,0,13.667,6.021,52.885,52.885,0,0,0,15.12,2.205,35.789,35.789,0,0,0,9.994-1.187,11.364,11.364,0,0,0,5.894-3.562,8.751,8.751,0,0,0,1.879-5.6,8.024,8.024,0,0,0-2.563-6.021q-2.563-2.459-9.738-4.156l-20.843-4.58a78.623,78.623,0,0,1-17-5.852,29.833,29.833,0,0,1-11.7-9.838q-4.271-6.191-4.271-15.52a31.694,31.694,0,0,1,5.809-18.743q5.809-8.226,16.743-12.976T173-60.3Z" transform="translate(-5.4 145.026)"/></g><path class="e" d="M53.075-29.7V24.859H38.706V-29.7Zm-35.421,0V24.859H3.285V-29.7ZM46.392-8.124V2.87H10.3V-8.124Zm18.88,32.983V-29.7h42.94v10.994H79.641V-7.628h22.723V2.7H79.641v11.16H109.3V24.859ZM144.3-29.7q9.858,0,15.33,4.588A15.114,15.114,0,0,1,165.1-12.919q0,8.349-5.43,12.73T144.385,4.193l-1.337.744H132.1V24.859H117.987V-29.7Zm-2,24.552q4.177,0,6.266-1.653t2.089-5.291q0-3.555-2.089-5.208T142.3-18.954H132.1V-5.148Zm8.438,2.976,17.627,27.031H152.489L138.37.969Zm24.812,27.031V-29.7h42.94v10.994H189.915V-7.628h22.723V2.7H189.915v11.16h29.657V24.859Z" transform="translate(157.715 1239.641)"/></g></g></svg>