<svg xmlns="http://www.w3.org/2000/svg" width="40" height="40" viewBox="0 0 40 40"><defs><style>.a,.d{fill:none;}.a{stroke:#ff7600;}.b{fill:#ff7600;}.c{stroke:none;}</style></defs><g transform="translate(-121 -2879)"><g class="a" transform="translate(121 2879)"><circle class="c" cx="20" cy="20" r="20"/><circle class="d" cx="20" cy="20" r="19.5"/></g><path class="b" d="M6.8,38.695,7.6,37.9a.854.854,0,0,1,1.211,0l6.942,6.939a.854.854,0,0,1,0,1.211L8.806,52.993a.854.854,0,0,1-1.211,0L6.8,52.2a.858.858,0,0,1,.014-1.225l4.3-4.1H.857A.855.855,0,0,1,0,46.019V44.876a.855.855,0,0,1,.857-.857H11.12l-4.3-4.1A.852.852,0,0,1,6.8,38.695Z" transform="translate(133 2853.409)"/></g></svg>