<svg xmlns="http://www.w3.org/2000/svg" width="40" height="40" viewBox="0 0 40 40"><defs><style>.a,.d{fill:none;}.a{stroke:#5f5f5f;}.b{fill:#5f5f5f;}.c{stroke:none;}</style></defs><g transform="translate(-55 -2879)"><g class="a" transform="translate(55 2879)"><circle class="c" cx="20" cy="20" r="20"/><circle class="d" cx="20" cy="20" r="19.5"/></g><path class="b" d="M9.2,38.695,8.4,37.9a.854.854,0,0,0-1.211,0L.252,44.84a.854.854,0,0,0,0,1.211l6.942,6.942a.854.854,0,0,0,1.211,0L9.2,52.2a.858.858,0,0,0-.014-1.225l-4.3-4.1H15.143A.855.855,0,0,0,16,46.019V44.876a.855.855,0,0,0-.857-.857H4.88l4.3-4.1A.852.852,0,0,0,9.2,38.695Z" transform="translate(67 2853.409)"/></g></svg>