<svg xmlns="http://www.w3.org/2000/svg" width="100" height="100" viewBox="0 0 100 100"><defs><style>.a{fill:#ff7600;}</style></defs><path class="a" d="M58,8a50,50,0,1,0,50,50A50,50,0,0,0,58,8Zm0,9.677A40.323,40.323,0,1,1,17.677,58,40.3,40.3,0,0,1,58,17.677M86.267,43.941l-4.543-4.58a2.419,2.419,0,0,0-3.421-.014L49.8,67.616,37.749,55.464a2.419,2.419,0,0,0-3.421-.014l-4.58,4.544a2.42,2.42,0,0,0-.014,3.422l18.3,18.451a2.419,2.419,0,0,0,3.421.014l34.8-34.517A2.42,2.42,0,0,0,86.267,43.941Z" transform="translate(-8 -8)"/></svg>