<svg xmlns="http://www.w3.org/2000/svg" width="21.329" height="16" viewBox="0 0 21.329 16"><defs><style>.a{fill:#ff7600;}</style></defs><path class="a" d="M21.184,67.533A3.239,3.239,0,0,0,18.1,64.15c-2.308-.108-4.662-.15-7.066-.15h-.75c-2.4,0-4.758.042-7.066.15A3.246,3.246,0,0,0,.14,67.541c-.1,1.483-.15,2.967-.146,4.45s.042,2.966.142,4.454a3.25,3.25,0,0,0,3.079,3.4c2.425.112,4.912.162,7.441.158s5.012-.042,7.441-.158a3.25,3.25,0,0,0,3.083-3.4c.1-1.487.146-2.971.142-4.458S21.284,69.021,21.184,67.533ZM8.619,76.078V67.891l6.041,4.091Z" transform="translate(0.006 -64)"/></svg>