<svg xmlns="http://www.w3.org/2000/svg" xmlns:xlink="http://www.w3.org/1999/xlink" width="208.635" height="47" viewBox="0 0 208.635 47">
  <defs>
    <linearGradient id="linear-gradient" y1="0.5" x2="1" y2="0.5" gradientUnits="objectBoundingBox">
      <stop offset="0" stop-color="#ff7600"/>
      <stop offset="1" stop-color="#f41e1e"/>
    </linearGradient>
  </defs>
  <g id="logo-colored" transform="translate(-787 -199)">
    <path id="Path_18888" data-name="Path 18888" d="M1345.159,100.046h-4.216a14.807,14.807,0,0,0-28.968.1,20.876,20.876,0,0,0-19,20.743V129.6H1303.1a8.9,8.9,0,0,0,16.654,0h12.574a8.91,8.91,0,0,0,16.864-.568,14.767,14.767,0,0,0-4.031-28.985Zm-33.741,30.38a3.961,3.961,0,1,1,3.969-3.961A3.959,3.959,0,0,1,1311.418,130.425Zm29.241,0a3.961,3.961,0,1,1,3.969-3.961A3.969,3.969,0,0,1,1340.659,130.425Zm8.036-7.774a8.9,8.9,0,0,0-16.407.777h-12.5a8.9,8.9,0,0,0-16.729,0h-3.907v-2.542a14.668,14.668,0,0,1,12.512-14.486v8.563h6.182V103.131a8.624,8.624,0,0,1,17.247,0v3.085h10.064a8.589,8.589,0,0,1,3.536,16.436Z" transform="translate(-505.971 110.639)" fill="url(#linear-gradient)"/>
    <path id="Path_25761" data-name="Path 25761" d="M-100.971-25.74-110.1,0h-7.878l-9.165-25.74h7.059l4.719,15.561,1.4,5.07,1.365-4.992,4.8-15.639ZM-91.1.39A12.129,12.129,0,0,1-96.7-.819a8.624,8.624,0,0,1-3.646-3.471,10.874,10.874,0,0,1-1.287-5.46,10.874,10.874,0,0,1,1.287-5.46,8.678,8.678,0,0,1,3.607-3.471,11.354,11.354,0,0,1,5.324-1.209A10.75,10.75,0,0,1-86.171-18.7a8.08,8.08,0,0,1,3.3,3.276,9.865,9.865,0,0,1,1.131,4.778q0,.7-.039,1.4a11.036,11.036,0,0,1-.117,1.17H-97.344v-3.549h12.519l-3.159,1.209A6.422,6.422,0,0,0-88.823-14a2.906,2.906,0,0,0-2.593-1.248,3.744,3.744,0,0,0-2.126.585,3.555,3.555,0,0,0-1.326,1.833,9.6,9.6,0,0,0-.449,3.2,8,8,0,0,0,.507,3.1,3.415,3.415,0,0,0,1.443,1.716A4.547,4.547,0,0,0-91.1-4.29a4.2,4.2,0,0,0,2.36-.585,3.5,3.5,0,0,0,1.306-1.638l5.3,1.755a6.164,6.164,0,0,1-1.891,2.827,9.047,9.047,0,0,1-3.2,1.736A12.81,12.81,0,0,1-91.1.39ZM-59.085-19.5-66.183,0a20.623,20.623,0,0,1-2.379,4.914A7.72,7.72,0,0,1-71.6,7.566a9.9,9.9,0,0,1-4.212.819,12.048,12.048,0,0,1-3-.351A8.6,8.6,0,0,1-81.2,7.059l1.326-4.485A4.608,4.608,0,0,0-78.39,3.3,7.673,7.673,0,0,0-76.4,3.51a3.877,3.877,0,0,0,1.853-.39A2.718,2.718,0,0,0-73.4,1.638l.507-1.209-2.262-5.3L-81-19.5h7.293l3,11.115.936,4.134,1.092-4.29,3-10.959Zm11.271-.39a11.686,11.686,0,0,1,5.4,1.189,8.643,8.643,0,0,1,3.627,3.471,10.853,10.853,0,0,1,1.307,5.48,10.853,10.853,0,0,1-1.307,5.48A8.643,8.643,0,0,1-42.412-.8a11.686,11.686,0,0,1-5.4,1.19A11.628,11.628,0,0,1-53.157-.8,8.616,8.616,0,0,1-56.8-4.27,10.853,10.853,0,0,1-58.11-9.75,10.853,10.853,0,0,1-56.8-15.23,8.616,8.616,0,0,1-53.157-18.7,11.628,11.628,0,0,1-47.814-19.89Zm0,4.719a3.433,3.433,0,0,0-1.95.546,3.374,3.374,0,0,0-1.248,1.755,9.495,9.495,0,0,0-.429,3.12,9.316,9.316,0,0,0,.429,3.1,3.484,3.484,0,0,0,1.248,1.755,3.346,3.346,0,0,0,1.95.565,3.415,3.415,0,0,0,1.989-.565,3.484,3.484,0,0,0,1.248-1.755,9.316,9.316,0,0,0,.429-3.1,9.494,9.494,0,0,0-.429-3.12,3.374,3.374,0,0,0-1.248-1.755A3.5,3.5,0,0,0-47.814-15.171Zm20.631-12.6V-6.63A3.015,3.015,0,0,0-26.754-4.8a1.729,1.729,0,0,0,1.443.546,5.091,5.091,0,0,0,.975-.078q.39-.078.936-.234l-.429,3.978a6.428,6.428,0,0,1-1.833.7A9.452,9.452,0,0,1-27.885.39q-3.12,0-4.524-1.443t-1.4-4.719v-22ZM-11.7-19.89A11.686,11.686,0,0,1-6.3-18.7,8.643,8.643,0,0,1-2.672-15.23,10.853,10.853,0,0,1-1.365-9.75,10.853,10.853,0,0,1-2.672-4.27,8.643,8.643,0,0,1-6.3-.8,11.686,11.686,0,0,1-11.7.39,11.628,11.628,0,0,1-17.043-.8,8.616,8.616,0,0,1-20.69-4.27,10.853,10.853,0,0,1-22-9.75a10.853,10.853,0,0,1,1.306-5.48A8.616,8.616,0,0,1-17.043-18.7,11.628,11.628,0,0,1-11.7-19.89Zm0,4.719a3.433,3.433,0,0,0-1.95.546A3.374,3.374,0,0,0-14.9-12.87a9.495,9.495,0,0,0-.429,3.12,9.316,9.316,0,0,0,.429,3.1A3.484,3.484,0,0,0-13.65-4.894a3.346,3.346,0,0,0,1.95.565,3.415,3.415,0,0,0,1.989-.565A3.484,3.484,0,0,0-8.463-6.649a9.316,9.316,0,0,0,.429-3.1,9.494,9.494,0,0,0-.429-3.12,3.374,3.374,0,0,0-1.248-1.755A3.5,3.5,0,0,0-11.7-15.171Z" transform="translate(997 236)" fill="#fff"/>
  </g>
</svg>
