<svg xmlns="http://www.w3.org/2000/svg" width="17.143" height="16" viewBox="0 0 17.143 16"><defs><style>.a{fill:#ff7600;}</style></defs><path class="a" d="M33.143,43.728l-.007-.518-.514-.046a4.168,4.168,0,0,1-1.939-.6c-.581-.536-1.275-1.293-1.275-1.853,0-.036,0-.091.148-.185a3.193,3.193,0,0,1,.689-.275,4.144,4.144,0,0,0,.514-.187,1.114,1.114,0,0,0,.624-1.029,1.071,1.071,0,0,0-1.074-.966,1.21,1.21,0,0,0-.43.081,3,3,0,0,1-.632.177c.027-.333.064-.719.115-1.1a4.477,4.477,0,0,0-1.045-3.609A4.911,4.911,0,0,0,24.582,32h-.01a4.91,4.91,0,0,0-3.735,1.619,4.5,4.5,0,0,0-1.045,3.618c.051.375.088.758.115,1.093a3.061,3.061,0,0,1-.632-.18,1.213,1.213,0,0,0-.43-.082,1.069,1.069,0,0,0-1.073.964,1.113,1.113,0,0,0,.624,1.028,4.142,4.142,0,0,0,.514.187,3.2,3.2,0,0,1,.689.275c.148.094.148.149.148.185,0,.309-.221.882-1.275,1.853a4.193,4.193,0,0,1-1.95.6l-.52.047v.524a1.432,1.432,0,0,0,.232.726,2.075,2.075,0,0,0,1.352.872q.271.064.543.123l.23.052,0,.022a1.775,1.775,0,0,0,.157.634.838.838,0,0,0,.786.44,1.963,1.963,0,0,0,.3-.027l.186-.031a4.982,4.982,0,0,1,.838-.092,1.678,1.678,0,0,1,.923.239c.162.1.318.213.482.331a3.8,3.8,0,0,0,5.088,0c.163-.116.318-.225.478-.327a1.678,1.678,0,0,1,.923-.239,4.984,4.984,0,0,1,.837.092l.186.031a1.963,1.963,0,0,0,.3.027.838.838,0,0,0,.786-.44,1.775,1.775,0,0,0,.157-.634l0-.022.231-.052c.144-.032.322-.071.543-.123a2.053,2.053,0,0,0,1.35-.876A1.422,1.422,0,0,0,33.143,43.728Zm-10.286-8.3c.316,0,.571.384.571.857s-.256.857-.571.857-.571-.384-.571-.857S22.542,35.429,22.857,35.429Zm3.7,2.775a2.786,2.786,0,0,1-3.974,0,.286.286,0,1,1,.4-.4,2.231,2.231,0,0,0,1.584.666,2.255,2.255,0,0,0,1.585-.668.286.286,0,1,1,.4.407Zm-.272-1.061c-.316,0-.571-.384-.571-.857s.256-.857.571-.857.571.384.571.857S26.6,37.143,26.286,37.143Z" transform="translate(-16 -32)"/></svg>