<svg xmlns="http://www.w3.org/2000/svg" width="16" height="16" viewBox="0 0 16 16"><defs><style>.a{fill:#ff7600;}</style></defs><path class="a" d="M78.72,64H65.367A1.305,1.305,0,0,0,64,65.246V78.629A1.408,1.408,0,0,0,65.367,80H78.716A1.336,1.336,0,0,0,80,78.629V65.246A1.227,1.227,0,0,0,78.72,64ZM68.96,77.337H66.667V70.21H68.96Zm-1.067-8.21h-.017a1.246,1.246,0,1,1,.017,0Zm9.444,8.21H75.045v-3.9c0-.934-.333-1.571-1.163-1.571a1.254,1.254,0,0,0-1.175.846,1.543,1.543,0,0,0-.079.563v4.059H70.335V70.21h2.292V71.2a2.32,2.32,0,0,1,2.067-1.159c1.5,0,2.642.992,2.642,3.13Z" transform="translate(-64 -64)"/></svg>