<svg xmlns="http://www.w3.org/2000/svg" width="153" height="33" viewBox="0 0 153 33"><defs><style>.a,.b{fill:#fff;}.b{font-size:28px;font-family:WorkSans-Bold, Work Sans;font-weight:700;}</style></defs><g transform="translate(-787 -199)"><path class="a" d="M1329.613,96.565h-2.96a10.4,10.4,0,0,0-20.34.069,14.657,14.657,0,0,0-13.343,14.564v6.117h7.11a6.248,6.248,0,0,0,11.694,0h8.829a6.256,6.256,0,0,0,11.841-.4,10.368,10.368,0,0,0-2.83-20.351Zm-23.69,21.33a2.781,2.781,0,1,1,2.787-2.781A2.78,2.78,0,0,1,1305.923,117.9Zm20.531,0a2.781,2.781,0,1,1,2.787-2.781A2.787,2.787,0,0,1,1326.454,117.9Zm5.642-5.458a6.25,6.25,0,0,0-11.52.546H1311.8a6.248,6.248,0,0,0-11.746,0h-2.743V111.2a10.3,10.3,0,0,1,8.785-10.171v6.012h4.341V98.731a6.055,6.055,0,0,1,12.11,0V100.9h7.066a6.031,6.031,0,0,1,2.483,11.54Z" transform="translate(-505.971 110.639)"/><text class="b" transform="translate(848 225)"><tspan x="0" y="0">Veyolo</tspan></text></g></svg>