<svg xmlns="http://www.w3.org/2000/svg" width="302" height="149" viewBox="0 0 302 149"><defs><style>.a{fill:none;}.b{fill:#fff;}</style></defs><g transform="translate(-453 -5972)"><rect class="a" width="302" height="149" transform="translate(453 5972)"/><g transform="translate(283.149 5412.481)"><g transform="translate(282.649 648.022)"><g transform="translate(0 0.528)"><path class="b" d="M270.038,639.453a3.485,3.485,0,0,1-2.284-1.43,3.206,3.206,0,0,1-.518-2.624,3.289,3.289,0,0,1,1.487-2.208,3.51,3.51,0,0,1,2.612-.485,3.717,3.717,0,0,1,1.777.819,3.017,3.017,0,0,1,.979,1.614c-.36-.059-.719-.118-1.079-.18a2.169,2.169,0,0,0-1.82-1.478,2.549,2.549,0,0,0-1.948.369,2.6,2.6,0,0,0-1.094,1.741,2.552,2.552,0,0,0,.354,2.034,2.524,2.524,0,0,0,1.694,1.065,2.554,2.554,0,0,0,1.871-.28,2.433,2.433,0,0,0,1.047-1.48q-1.419-.238-2.835-.5l.128-.689q1.882.351,3.771.655c-.038.231-.074.462-.112.692a3.183,3.183,0,0,1-1.46,1.948A3.56,3.56,0,0,1,270.038,639.453Z" transform="translate(-267.153 -632.638)"/></g><g transform="translate(12.486 2.343)"><path class="b" d="M280.59,640.8q-.209-.759-.413-1.522-1.553-.145-3.1-.32c-.237.469-.476.939-.716,1.406l-.943-.112q1.689-3.19,3.272-6.413.487.052.976.1.886,3.475,1.885,6.943Zm-3.177-2.51q1.283.143,2.569.266-.478-1.8-.928-3.593Q278.247,636.631,277.413,638.289Z" transform="translate(-275.415 -633.838)"/></g><g transform="translate(25.062 3.062)"><path class="b" d="M284.771,638.307l-.106,2.781q-.465-.018-.93-.038.147-3.369.295-6.736,1.1.048,2.2.08a2.539,2.539,0,0,1,1.737.6,1.786,1.786,0,0,1,.583,1.366,2,2,0,0,1-.469,1.332,2.075,2.075,0,0,1-1.365.642q.923,1.435,1.879,2.858c-.388,0-.777-.012-1.165-.02q-.9-1.41-1.768-2.831Zm.122-3.248q-.048,1.274-.1,2.548.669.025,1.339.045a1.579,1.579,0,0,0,1.12-.308,1.2,1.2,0,0,0,.382-.931c.017-.849-.459-1.283-1.428-1.31C285.772,635.091,285.332,635.076,284.894,635.059Z" transform="translate(-283.736 -634.314)"/></g><g transform="translate(36.411 3.067)"><path class="b" d="M293.387,634.323a3.679,3.679,0,0,1,2.645.783,3.315,3.315,0,0,1,1.115,2.426,3.1,3.1,0,0,1-.825,2.512,3.82,3.82,0,0,1-2.652,1.016q-1.118.048-2.235.079-.093-3.369-.189-6.739Q292.317,634.367,293.387,634.323Zm-1.046,6.106q.651-.023,1.3-.05a2.713,2.713,0,0,0,1.995-.8,2.63,2.63,0,0,0,.582-1.992,2.7,2.7,0,0,0-.8-1.913,2.664,2.664,0,0,0-2-.6c-.419.018-.839.033-1.257.049Q292.252,637.774,292.341,640.429Z" transform="translate(-291.245 -634.317)"/></g><g transform="translate(48.219 1.945)"><path class="b" d="M302.631,633.575l.089.7q-1.347.172-2.7.323l.254,2.282q1.22-.136,2.441-.29l.086.685q-1.224.156-2.451.292l.26,2.34q1.4-.154,2.79-.334l.091.7q-1.863.238-3.729.435-.354-3.353-.706-6.706Q300.847,633.806,302.631,633.575Z" transform="translate(-299.058 -633.575)"/></g><g transform="translate(58.109)"><path class="b" d="M310.017,632.466l.877-.178q.682,3.3,1.366,6.6-.456.1-.914.188-2.369-2.254-4.62-4.573.465,2.634.933,5.27-.46.082-.92.159-.567-3.321-1.135-6.646.44-.075.88-.153,2.238,2.321,4.59,4.578Q310.543,635.089,310.017,632.466Z" transform="translate(-305.602 -632.288)"/></g></g><g transform="translate(299.07 660.541)"><g transform="translate(0 0.176)"><path class="b" d="M278.019,646.134c.048-.334.1-.669.144-1q.249-.156.7-.434c.3-.184.532-.328.7-.434s.357-.239.577-.4a3.941,3.941,0,0,0,.5-.425,1.6,1.6,0,0,0,.49-.849c.051-.449-.122-.7-.526-.745a.575.575,0,0,0-.484.144.893.893,0,0,0-.245.559q-.669-.086-1.336-.181a1.832,1.832,0,0,1,.759-1.356,2.191,2.191,0,0,1,1.519-.3,1.929,1.929,0,0,1,1.347.674,1.718,1.718,0,0,1,.376,1.289,1.832,1.832,0,0,1-.346.932c-.115.148-.215.275-.3.378a2.631,2.631,0,0,1-.4.372c-.183.145-.319.251-.4.316s-.243.175-.472.33-.375.255-.437.3q1.081.134,2.163.245l-.113,1.1Q280.124,646.433,278.019,646.134Z" transform="translate(-278.019 -640.688)"/></g><g transform="translate(9.322 0.954)"><path class="b" d="M285.553,641.376a2.754,2.754,0,0,1,2.11.078,1.724,1.724,0,0,1,.691.632,2.944,2.944,0,0,1,.363.913,4.869,4.869,0,0,1,.1,1.146,4.814,4.814,0,0,1-.144,1.143,2.834,2.834,0,0,1-.41.9,1.724,1.724,0,0,1-.751.6,2.577,2.577,0,0,1-1.117.178,2.55,2.55,0,0,1-1.1-.261,1.731,1.731,0,0,1-.7-.651,2.766,2.766,0,0,1-.342-.925,4.821,4.821,0,0,1-.057-1.149,4.925,4.925,0,0,1,.189-1.136,2.928,2.928,0,0,1,.432-.883A1.716,1.716,0,0,1,285.553,641.376Zm1.422,1.211a.885.885,0,0,0-.407-.106.863.863,0,0,0-.414.076.721.721,0,0,0-.277.216,1.091,1.091,0,0,0-.166.352,2.4,2.4,0,0,0-.094.426c-.018.138-.03.3-.039.494s-.011.354-.006.493a2.464,2.464,0,0,0,.054.434,1.113,1.113,0,0,0,.137.366.723.723,0,0,0,.266.239,1,1,0,0,0,.842.032.738.738,0,0,0,.283-.219,1.1,1.1,0,0,0,.165-.354,2.558,2.558,0,0,0,.088-.428c.014-.139.026-.3.03-.493s0-.357,0-.5a2.648,2.648,0,0,0-.06-.432,1.161,1.161,0,0,0-.141-.363A.736.736,0,0,0,286.975,642.586Z" transform="translate(-284.187 -641.202)"/></g><g transform="translate(18.701 1.016)"><path class="b" d="M291.572,646.964l-.163-4.392q-.49.018-.981.032c-.012-.422-.024-.845-.035-1.266q1.195-.034,2.388-.094l.286,5.654C292.569,646.924,292.071,646.945,291.572,646.964Z" transform="translate(-290.393 -641.244)"/></g><g transform="translate(26.642)"><path class="b" d="M295.655,642.41a1.466,1.466,0,0,1,.414-1.174,2.237,2.237,0,0,1,1.437-.638,2.21,2.21,0,0,1,1.546.28,1.482,1.482,0,0,1,.68,1.046,1.328,1.328,0,0,1-.585,1.336,1.5,1.5,0,0,1,1.108,1.3,1.586,1.586,0,0,1-.455,1.412,2.835,2.835,0,0,1-3.228.388,1.585,1.585,0,0,1-.784-1.257,1.5,1.5,0,0,1,.763-1.533A1.327,1.327,0,0,1,295.655,642.41Zm3.169,2.267a.762.762,0,0,0-.281-.526.808.808,0,0,0-.626-.141.925.925,0,0,0-.6.281.716.716,0,0,0-.172.585.767.767,0,0,0,.295.549.87.87,0,0,0,.659.147.757.757,0,0,0,.725-.895Zm-.407-2.383a.648.648,0,0,0-.252-.467.692.692,0,0,0-.517-.121.731.731,0,0,0-.481.242.657.657,0,0,0-.141.518.645.645,0,0,0,.261.475.744.744,0,0,0,.99-.124A.65.65,0,0,0,298.417,642.294Z" transform="translate(-295.647 -640.571)"/></g></g><g transform="translate(236.851 601.518)"><g transform="translate(0 0.853)"><path class="b" d="M259.725,608.074a6.645,6.645,0,0,1-.3-.81c-.125-.375-.248-.727-.372-1.078-.187-.535-.375-1.067-.573-1.687a3.167,3.167,0,0,0-1.936-2.34,7.878,7.878,0,0,0-2.524.048,22.468,22.468,0,0,0-9.3,4.439,18.459,18.459,0,0,0-4.643,5.616,11.608,11.608,0,0,0-1.483,5.931,8.652,8.652,0,0,0,2.352,6.017l.03.03a5.874,5.874,0,0,0,1.859,1.242l.086.015c.517,0,.868.13.937.334.275.813-1.711,3.44-2.878,5.016a22.17,22.17,0,0,0-1.919,2.844,19.563,19.563,0,0,0-2.191,8.586c-.157,3.815.718,6.866,2.529,9.062.06.086.135.174.215.271a3.011,3.011,0,0,1,.453.667l.077.116a6.275,6.275,0,0,0,4.347,2.122,6.017,6.017,0,0,0,1.085-.068,8.1,8.1,0,0,0,2.722-.981l.068-.053c.245-.263.44-.37.574-.36.32.107.571-.142.753-.326.077-.077.18-.183.228-.189h0l.05-.006.045-.03c.355-.228.7-.41,1.052-.592s.691-.358,1.005-.559a8.667,8.667,0,0,0,1.431-.806c.225-.145.458-.295.691-.434a10.636,10.636,0,0,0,1.809-1.1,21.5,21.5,0,0,0,3.092-3.251,9.541,9.541,0,0,0,1.516-2.577,1.927,1.927,0,0,1,.606-.626l.261-.16-.116-.37a6.187,6.187,0,0,0-1.342-2.418c-.148-.252-.331-.523-.592-.541-.278-.012-.491.263-.715.609a10.46,10.46,0,0,1-2.651,2.344l-1.351.686c-.694.354-1.4.718-2.108,1.09-.869.558-1.8,1.074-2.7,1.578-.724.4-1.443.81-2.108,1.229a19.489,19.489,0,0,1-3.7,1.409,2.522,2.522,0,0,1-1.8-.178c-.45-.269-.88-1.912-.861-2.675.13-6,7.3-16.59,10.318-19.539a6.666,6.666,0,0,0,1.263-1.848,5.833,5.833,0,0,1,1.191-2.021l.142-.15-.032-.24-.05-.266c-.254-.689-.582-.984-1.159-1.014a4.794,4.794,0,0,0-2.516.8,17.4,17.4,0,0,1-4.434,1.566c-2.518.781-2.82.331-2.822.329s-.091-.588,1.649-2.4c3.014-3.144,7.758-6.1,8.383-5.628l.138.224.21-.069a8.586,8.586,0,0,1,2.373-.47c1.309-.1,2.46-1,3.372-2.682a4.124,4.124,0,0,0,.446-3.215C259.848,608.37,259.786,608.218,259.725,608.074Z" transform="translate(-236.851 -602.083)"/></g><g transform="translate(24.137 5.402)"><path class="b" d="M300.58,612.033a.892.892,0,0,1,.059-.11.929.929,0,0,0,.162-.535,2.609,2.609,0,0,1,.336-.834c.112-.184.224-.363.333-.535.079-.124.157-.248.231-.369l-.13.544c-.03.154-.056.308-.08.465a6.651,6.651,0,0,1-.18.88,7.059,7.059,0,0,0-.073,3.228,2.128,2.128,0,0,0,1.366,1.661,4.127,4.127,0,0,0,.438.16,2.646,2.646,0,0,1,.546.222.532.532,0,0,0,.7-.006.984.984,0,0,1,.337-.172,1.054,1.054,0,0,0,.769-.355.574.574,0,0,0,.142-.1l.08-.077v-.015a1.081,1.081,0,0,0,.089-.073l.131-.127a.894.894,0,0,0,.426-.478c.038-.065.092-.171.092-.175a.86.86,0,0,0,.375-.653l.011-.115-.062-.092c-.053-.079-.246-.32-.464-.316a.583.583,0,0,0-.438.293,3.438,3.438,0,0,1-.627.555l-.076.088a.4.4,0,0,1-.064.07,1.2,1.2,0,0,0-.1.107c-.032,0-.076-.006-.107-.009a1.013,1.013,0,0,0-.178-.012.6.6,0,0,0-.079-.11c.041-.283.056-.561.07-.833.009-.157.017-.316.03-.473s.035-.345.053-.52a10.276,10.276,0,0,0,.086-1.679c-.02-.423-.057-.846-.094-1.259-.027-.323-.056-.642-.076-.9l.026-.287-.024-.067c-.228-.627-.6-1.347-1.433-1.345h-.024c-.16,0-.32.02-.488.036s-.337.035-.558.042a1.685,1.685,0,0,0-1.072.8,11.908,11.908,0,0,1-.942,1.377,16.614,16.614,0,0,1-.943,1.471l-.039.057a49.927,49.927,0,0,0-2.723,5.476v.006a4.917,4.917,0,0,1-1.513,1.87,3.065,3.065,0,0,1,.174-.719,20.01,20.01,0,0,1,1.35-3.057,26.343,26.343,0,0,0,1.448-3.19c.142-.491.209-.546.267-.594.15-.123.269-.254.44-.816a3.136,3.136,0,0,0-.142-2.829c-.147-.189-.293-.363-.438-.533a5.589,5.589,0,0,1-.845-1.185l-.066-.089a1.941,1.941,0,0,0-1.155-.546,6.016,6.016,0,0,0-1.33-.142c-.671-.092-.994.145-1.251.907-.438.839-.784,1.688-1.15,2.586l-.1.245a2.866,2.866,0,0,1-.174.414,2.378,2.378,0,0,0-.228.623,11.4,11.4,0,0,0-.793,2.721c-.054.314-.124.71-.233,1.26a7.868,7.868,0,0,0-.34,1.458c-.051.079-.1.157-.141.233a16.482,16.482,0,0,1-1.564,2.01c-.15.2-.3.378-.449.561-.162.2-.325.4-.476.6l-.136.157c-.372.36-.733.73-1.091,1.1-.472.482-.957.984-1.445,1.439a12.349,12.349,0,0,1-3.337,2.367,14.464,14.464,0,0,1-1.848.521h-.035c-.638.035-1.409-.677-2.033-1.248l-.116-.1a6.74,6.74,0,0,1-.326-.686,6.122,6.122,0,0,0-.387-.792,2.172,2.172,0,0,1-.189-.793,7.756,7.756,0,0,0-.085-1.117l-.017-.283-.157.024.023-.225.268-.042.225-.089-.011-.4-.094-.083a.337.337,0,0,0-.038-.03.687.687,0,0,0,.31-.518l.057-.132a.687.687,0,0,0,.293-.536.991.991,0,0,1,.1-.385c.027-.068.054-.135.079-.207.172.269.323.567.472.857l.136.258a1.143,1.143,0,0,0,.053.125.168.168,0,0,1,.014.119l-.024.132a.8.8,0,0,0,.2.478l.079.048a1.145,1.145,0,0,1,.249.172,1.086,1.086,0,0,0,.7.323h.008a.5.5,0,0,0,.42.177.666.666,0,0,1,.122.011,1.784,1.784,0,0,0,1.058-.311A2.076,2.076,0,0,0,282.224,618l.115-.23a4.786,4.786,0,0,0,.405-.955,6.334,6.334,0,0,1,.413-.911c.044-.083.086-.168.13-.251a7.127,7.127,0,0,0,.807-2.279,5.224,5.224,0,0,0,.015-2.07l-.032-.115a1.154,1.154,0,0,0-.281-.538,2.621,2.621,0,0,1-.582-.846c-.057-.109-.115-.219-.174-.322a1.363,1.363,0,0,0-.47-.6,8.794,8.794,0,0,0-1.848-.494c-.466-.1-.905-.184-1.135-.257l-.039-.063a.772.772,0,0,0-.26-.3.533.533,0,0,0-.333-.118.4.4,0,0,1-.128-.024c-.319-.422-.818-.145-1.022-.027a2.242,2.242,0,0,1-.289.2c-.067.041-.135.083-.23.147a13.945,13.945,0,0,0-2.358,2.453,16.93,16.93,0,0,0-1.868,2.841,19.062,19.062,0,0,0-1.348,3.057c-.027.082-.057.16-.086.239a2.69,2.69,0,0,0-.234,1.133l.051,1.111c.144-.331.289-.663.434-.994l.009-.023c-.106.428-.183.849-.245,1.269a1.755,1.755,0,0,1-.536.5,3.677,3.677,0,0,0-.739.414,5.152,5.152,0,0,1-.494.307c-.508.215-.895-.162-1.381-.713a3.186,3.186,0,0,0-.45-.452l-.071-.143a11.3,11.3,0,0,1-1.2-3.493,1.79,1.79,0,0,0-.1-.2l-.024-.1a.585.585,0,0,0-.422-.394l-.091-.018a.752.752,0,0,0-.509.017l-.056.012a.517.517,0,0,0-.224-.124,4.345,4.345,0,0,0-1.507-.05c-.461.225-.614.331-.511.89a5.029,5.029,0,0,1,.083.612l.032.125a11.365,11.365,0,0,1,.4,1.338c-.11.564-.184.638-.287.741a2.249,2.249,0,0,0-.562,1.133,5.832,5.832,0,0,0-.428,1.362,6.8,6.8,0,0,1-.633,1.732q-.326.662-.651,1.323a29.269,29.269,0,0,1-1.5,2.947q-.147.267-.295.532v0l-.014-.015a.393.393,0,0,1,.041-.121l.11-.234-.15-.115-.044-.109a.457.457,0,0,1-.048-.107c-.011-.03-.024-.063-.039-.1a2.9,2.9,0,0,0-.19-.845c-.018-.1-.054-.159-.063-.147l-.077-.709c-.154.234-.31.467-.464.7l-.045.122c-.014.089-.026.178-.038.266q-.032-.122-.068-.236c-.06-.3-.1-.611-.144-.923l.076.181.5.054.059-.227a1.825,1.825,0,0,0,.073-.952,4.675,4.675,0,0,1-.166-1.18c-.054-.537-.112-1.091-.213-1.6l-.045-.44a6.759,6.759,0,0,0-.407-1.984c-.011-.07-.027-.15-.045-.239a3.5,3.5,0,0,1-.072-.42l-.05-.283a3.877,3.877,0,0,0-.47-1.514.612.612,0,0,1-.051-.488.984.984,0,0,0,.366-.073l.252-.062-.056-.284a1.687,1.687,0,0,0-.523-.889,2.133,2.133,0,0,1-.26-.305l-.088-.086c-.091-.053-.184-.1-.278-.154a2.268,2.268,0,0,1-.759-.555l-.109-.128a.686.686,0,0,0-.506-.141c-.059.015-.1.023-.119.027a1.4,1.4,0,0,0-.186-.192,1.205,1.205,0,0,1-.224-.184l-.07-.073a.63.63,0,0,0-.84.06l-.054.082a1.335,1.335,0,0,0-.112.423c0,.036-.009.076-.023.175a2.838,2.838,0,0,0,.014.382c.008.062.015.138.026.326a5.372,5.372,0,0,0-.051,1.248c0,.127.009.252.011.351a24.6,24.6,0,0,1-.271,2.6c-.112.87-.183,1.73-.257,2.64-.053.647-.107,1.3-.175,1.981-.03.34-.048.665-.068.984-.023.373-.044.738-.08,1.106-.045.459-.062.937-.079,1.4-.017.481-.033.936-.08,1.4,0,.118,0,.234-.009.355a4.59,4.59,0,0,0,.015.845,3.544,3.544,0,0,0,1.158,2.14,6.466,6.466,0,0,0,.651.355,7.132,7.132,0,0,1,1.356.805,1.258,1.258,0,0,0,.795.65,1.167,1.167,0,0,0,.391.024,1.546,1.546,0,0,0,.807-.352l.137-.06c.263-.113.49-.213.62-.255a2.1,2.1,0,0,0,.591-.089,1.055,1.055,0,0,0,.682-.567,4.8,4.8,0,0,0,1.109-2.237,5.944,5.944,0,0,1,.6-1.4c.023-.07.048-.138.073-.206a1.642,1.642,0,0,0,.145-.945c0-.023.008-.054.011-.088.008-.051.012-.1.015-.142a6.517,6.517,0,0,1,.508-1.427,4.409,4.409,0,0,0,.756-1.653c.027-.047.051-.1.076-.147a.681.681,0,0,1,.122-.2l.059-.088c.266-.608.456-1.194.642-1.762.115-.357.23-.707.363-1.059s.195-.594.246-.781a3.539,3.539,0,0,1,.19-.544c.132.181.249.333.366.479a10.153,10.153,0,0,1,.7.981l.062.07c.033.026.13.1.254.186.195.138.65.466.7.512l.06.073a6.539,6.539,0,0,0,.689.393v.071l.206.03a1.82,1.82,0,0,1,.183.073c.771.316,1.537.559,1.975.218a9.15,9.15,0,0,0,1.365-.674l0,.021a8.163,8.163,0,0,0,.481,2.3,2.688,2.688,0,0,0,.836,1.129,6.06,6.06,0,0,1,.6.537,4.947,4.947,0,0,0,2.435,1.451,20.275,20.275,0,0,0,3.688.2,3.223,3.223,0,0,0,.647-.083,8.061,8.061,0,0,0,1.812-.639l.408-.207a5.658,5.658,0,0,0,1.652-.945,9.681,9.681,0,0,1,.9-.654c.094-.088.187-.162.281-.236s.21-.168.3-.249a4.774,4.774,0,0,0,.5-.47c.069-.072.142-.147.251-.252a15.379,15.379,0,0,0,1.461-1.561,8.194,8.194,0,0,1,.852-.985,3.87,3.87,0,0,0,.552-.747l.168-.293-.195-.089.021-.027a1.076,1.076,0,0,0,.261-.518l.079-.45c.07-.092.142-.189.219-.307a4.411,4.411,0,0,1,.287-.5c-.094,1.081-.163,2.17-.239,3.435a17.762,17.762,0,0,0,.085,2.861c.21,1.3.689,2.025,1.46,2.211.171.156.325.194.462.118a3.2,3.2,0,0,0,.65.062,1.822,1.822,0,0,0,1.552-.96.856.856,0,0,1,.088-.08.628.628,0,0,0,.219-.266,28.78,28.78,0,0,0,1.786-3.323c.063-.166.136-.331.207-.494a8.1,8.1,0,0,0,.311-.787,18.523,18.523,0,0,1,.978-2.22c.19-.385.382-.772.564-1.171.141-.308.29-.6.437-.887.215-.422.438-.858.63-1.336A17.81,17.81,0,0,1,300.58,612.033Zm-24.46,8.258h0v0Zm0-.079Zm5.47-7.416a7.869,7.869,0,0,1-.44,1.1c-.121.26-.257.553-.408.972a1.824,1.824,0,0,1-.654.839c-.42.112-.688.169-.864-.018a1.158,1.158,0,0,0-.453-.339l-.112-.059c-.03-.015-.066-.038-.076-.067s-.023-.1.089-.334a4.476,4.476,0,0,1,.26-.487l.068-.118c.119-.174.234-.354.351-.535a6.634,6.634,0,0,1,1.038-1.347c.5-.491,1.2-.775,1.366-.633C281.81,611.819,281.854,612.094,281.586,612.8Z" transform="translate(-252.821 -605.093)"/></g><g transform="translate(70.083)"><path class="b" d="M382.719,637.462l.42-.806-.535.172-.041-.042-.166.124a4.622,4.622,0,0,1-.5.316c-.6.363-1.078.638-1.6.895-1.5.7-2.7,1.238-3.908,1.724-.225.079-.449.159-.673.239-6.691,2.43-8.355,2.566-8.619,2.19-.023-.033,0-.139.047-.24.213-.361,1.646-1.925,2.7-3.062.79-.854,1.477-1.588,1.706-1.874a25.752,25.752,0,0,1,3.177-3.074c.086-.086.177-.165.269-.243a2.509,2.509,0,0,0,.707-.816,11.677,11.677,0,0,1,1.072-.872l.162-.124a1.126,1.126,0,0,0,.665-.527,2.654,2.654,0,0,0,.54-1.537,2.176,2.176,0,0,0-.249-1.289.651.651,0,0,0-.905-.144,1.672,1.672,0,0,0-.793.423l-.059.051c-.15.083-.3.168-.443.252a10.1,10.1,0,0,1-1.38.7l-.062.033a5.647,5.647,0,0,0-.8.682,3.732,3.732,0,0,1-.819.606,49.9,49.9,0,0,1-6.271,2.349c-4.032,1.276-5.358,1.25-5.5,1.053,0-.051.035-.589,2.666-2.486a6.991,6.991,0,0,0,.62-.446,4.121,4.121,0,0,1,.435-.311c.263-.21.543-.4.815-.576a6.6,6.6,0,0,0,1.153-.883l.413-.337c.491-.4,1-.807,1.353-1.159a6.308,6.308,0,0,0,.786-.609,4.251,4.251,0,0,1,.518-.405l.054-.044a3.014,3.014,0,0,0,.914-1.617,3.158,3.158,0,0,0-.159-2.577c0-.02,0-.042,0-.066a2.107,2.107,0,0,0-.033-.311,4.579,4.579,0,0,0-.231-.689l-.252-.379a5.9,5.9,0,0,1-.969-1.658l-.009-.079-.042-.062c-.054-.08-.116-.178-.177-.275s-.119-.187-.172-.264l-.1-.153-.168.051a3.413,3.413,0,0,0-.86.4,10.24,10.24,0,0,0-1.61,1.192,7.646,7.646,0,0,0-1.64,1.563,11.561,11.561,0,0,1-.973,1.031l-.082.112a5.286,5.286,0,0,1-.914,1.153,5.822,5.822,0,0,0-.55.638,16.679,16.679,0,0,1-1.177,1.641,13.5,13.5,0,0,0-.84,1.168l-.009,0a.506.506,0,0,0-.163.044,14.643,14.643,0,0,0-1.762,1.118,15.952,15.952,0,0,1-1.6,1.035c-.16.08-.325.142-.491.206a4.458,4.458,0,0,0-.493.212c-.447.113-.837.2-1.221.28l-.082.018a5.884,5.884,0,0,1-.8.153l-.252.039a3.786,3.786,0,0,1-1.005-.066.232.232,0,0,1-.163-.148,6.712,6.712,0,0,1,.014-1.294,1.9,1.9,0,0,1,.435-.849c.408-.378.837-.806,1.2-1.2l.053-.048a.659.659,0,0,0,.215-.311,3.066,3.066,0,0,0,.077-1.812c-.06-.135-.122-.268-.175-.376a1.349,1.349,0,0,0-1.141-.866l-.112-.023-.089.079c-.5.44-.979.839-1.455,1.236l-.183.153a10.893,10.893,0,0,1-1.173.824,3.622,3.622,0,0,0-.6.376,3.2,3.2,0,0,1-.945.591,14.913,14.913,0,0,0-1.625.745,6.307,6.307,0,0,1,.742-.869,1,1,0,0,1,.261-.216l.145-.107c.193-.142.413-.3.586-.461.148-.113.295-.228.44-.342a12.893,12.893,0,0,1,1.259-.905,8.806,8.806,0,0,0,.857-.5,8.2,8.2,0,0,1,1.536-.861c.224-.106.447-.21.665-.32l.082-.071a6.463,6.463,0,0,1,1.406-.367,1.177,1.177,0,0,0,1.037-1.138c0-.088,0-.163,0-.239s0-.131,0-.273a3.014,3.014,0,0,0-.373-.94c-.056-.1-.113-.212-.163-.317a.645.645,0,0,0-.369-.323.55.55,0,0,1-.2-.166,1.1,1.1,0,0,0-.34-.28.805.805,0,0,0-.469-.461l-.148-.074a.811.811,0,0,1-.2-.166,4.26,4.26,0,0,0-.426-.236,2.064,2.064,0,0,1-.5-.311l-.251-.106a5.345,5.345,0,0,0-1-.189,1.544,1.544,0,0,0-.612-.039,9.283,9.283,0,0,0-2.535,1.046,29.843,29.843,0,0,0-3.153,2.276.649.649,0,0,0-.216.168,9.584,9.584,0,0,0-1.643,1.428c-.2-.261-.434-.529-.722-.529s-.491.261-.739.589a6.357,6.357,0,0,1-.583.7c-.552.54-1.076,1.093-1.6,1.649a39.41,39.41,0,0,1-2.917,2.891,15.453,15.453,0,0,0-1.448,1.947,5.129,5.129,0,0,1-.747.984,8.805,8.805,0,0,0-.946,1.007c-.333.333-.423.473-.416.648-.045.042-.113.106-.219.2a1.163,1.163,0,0,1-.248.171c-.036.021-.071.041-.1.062a2.865,2.865,0,0,0-.423.133,2.258,2.258,0,0,1-1.062.165l-.192-.31a5.236,5.236,0,0,1-.837-1.852l-.035-.1a.658.658,0,0,1-.086-.222l.2.044-.156-.277a.942.942,0,0,0-.012-.657,1.073,1.073,0,0,0-.162-.639,9.384,9.384,0,0,1,.094-2.03,1.838,1.838,0,0,1,.065-.3,1.562,1.562,0,0,0,.071-.756l-.009-.05a.075.075,0,0,0,.009-.021l.331-1.307a2.8,2.8,0,0,0,.293-1.15,1.886,1.886,0,0,1,.109-.443c.018-.057.038-.115.054-.174a.677.677,0,0,0,.239-.5c.035-.118.077-.228.119-.336a2.785,2.785,0,0,0,.172-.561,7.35,7.35,0,0,0,.618-1.18,11.54,11.54,0,0,1,.582-1.217.753.753,0,0,1,.333-.39l.089-.068a1.809,1.809,0,0,0,.332-.588.891.891,0,0,1,.357-.482l.056-.045a6.555,6.555,0,0,0,1.685-1.662,3.56,3.56,0,0,1,.795-.611,2.523,2.523,0,0,0,1.167-.868,3.441,3.441,0,0,1,1.174-1.141,5.969,5.969,0,0,0,1.078-1.241,4.451,4.451,0,0,1,.378-.6l.1-.145c.346-.378.635-.762.9-1.12a7.765,7.765,0,0,1,1.037-1.046,3.048,3.048,0,0,0,.633-.845.483.483,0,0,0,.1-.24,2.7,2.7,0,0,0,.739-1.315c.18-.394.346-.738.508-1.072a5.084,5.084,0,0,0,.446-1.443l.077-.382v-.039a1.217,1.217,0,0,0-.127-.6l-.042-.057a4.19,4.19,0,0,1-.491-.626,3.932,3.932,0,0,0-.558-.688,2.2,2.2,0,0,0-2.365-.543,14.681,14.681,0,0,1-1.6.518c-.082.032-.168.063-.255.1a3.693,3.693,0,0,0-.561.24,19.026,19.026,0,0,1-1.75.886,10.31,10.31,0,0,0-1.759,1.407c-.537.635-1.158,1.313-1.877,2.063-.051.077-.1.151-.141.224a3.035,3.035,0,0,1-.4.546c-.281.431-.617.857-.964,1.3a6.771,6.771,0,0,1-.612.929,3.284,3.284,0,0,0-.246.349,2.371,2.371,0,0,1-.189.272,7.976,7.976,0,0,0-1.059,1.912c-.3.68-.719,1.61-.994,1.61-.056,0-.263-.061-.591-.833l-.033-.08-.07-.045c-.077-.05-.16-.106-.246-.166a6.02,6.02,0,0,0-.561-.36l-.077-.045a1.066,1.066,0,0,0-.425-.16c-.079,0-.16,0-.242-.008a1.894,1.894,0,0,0-.78.063,9.26,9.26,0,0,0-4.375,1.833,14.647,14.647,0,0,0-2.465,2.323l.017-.1c-.215.16-.429.322-.645.482l0,.048c-.113.147-.222.264-.352.407-.465.524-.865.961-1.307,1.386-.913.849-2.021,1.865-3.328,2.953l-.574.444c-5.849,4.57-7.427,5.264-7.785,5-.032-.024-.038-.134-.02-.246.11-.416,1.081-2.383,1.8-3.818.538-1.079,1.007-2.01,1.152-2.361a28.06,28.06,0,0,1,2.246-3.991c.059-.109.127-.213.194-.319a2.731,2.731,0,0,0,.464-1.016,12.7,12.7,0,0,1,.8-1.192l.122-.169a1.242,1.242,0,0,0,.5-.725,2.692,2.692,0,0,0,.1-1.64,2.045,2.045,0,0,0-.6-1.144c-.352-.187-.564-.151-.917.169a1.811,1.811,0,0,0-.648.665l-.045.071c-.122.13-.24.258-.36.388a10.9,10.9,0,0,1-1.143,1.133l-.05.053a6.057,6.057,0,0,0-.588.916,4.026,4.026,0,0,1-.629.854,54.845,54.845,0,0,1-5.429,4.339c-3.555,2.568-4.841,2.992-5.036,2.853-.015-.05-.124-.573,1.907-3.262.193-.228.343-.441.478-.632a4.708,4.708,0,0,1,.337-.444c.2-.289.419-.559.633-.824a7.242,7.242,0,0,0,.874-1.224l.313-.469c.364-.54.742-1.1.985-1.548a7.1,7.1,0,0,0,.6-.845,4.8,4.8,0,0,1,.388-.559l.041-.059a3.142,3.142,0,0,0,.438-1.844,3.017,3.017,0,0,0-.863-2.4l-.021-.062a2.2,2.2,0,0,0-.119-.284,4.115,4.115,0,0,0-.422-.588l-.345-.269a5.357,5.357,0,0,1-1.391-1.248l-.03-.071-.059-.045c-.07-.054-.153-.122-.234-.192s-.177-.145-.252-.2l-.144-.11-.147.106a3.5,3.5,0,0,0-.668.606l-.053.06a11.437,11.437,0,0,0-1.223,1.676,8.321,8.321,0,0,0-1.147,2.031,12.274,12.274,0,0,1-.657,1.31l-.048.133a5.638,5.638,0,0,1-.565,1.4,6.389,6.389,0,0,0-.357.792,17.942,17.942,0,0,1-.688,1.959,11.241,11.241,0,0,0-.689,2.184c-.057.877-.092.942-.2,1.158a4.4,4.4,0,0,0-.272.621c-.265.642.37,2.052,1.611,4.433.189.363.337.648.4.8a5.754,5.754,0,0,0,2.557,1.972l.056.012.056-.017a18.122,18.122,0,0,0,3.348-1.472c.144-.077.29-.156.417-.219-.254.452-.762,1.25-1.427,2.3-.351.558-.7,1.114-1.05,1.673-.423.641-1.449,2.525-2.217,3.976a3.95,3.95,0,0,1-1.233,1.165c-1.239.614-2.176.978-3.26,1.4l-.322.127a19.937,19.937,0,0,1-5.3,1.738l-.314.077c-.4.1-.858.212-1.268.354a1.761,1.761,0,0,0-1.062,1.66,6.061,6.061,0,0,0,2.272,3.789,5.761,5.761,0,0,0,3.517,1.365,3.8,3.8,0,0,0,.987-.127h.248a5.138,5.138,0,0,0,2.456-.4,12.408,12.408,0,0,0,2.826-2.034,4.924,4.924,0,0,1,.8-.854,5.956,5.956,0,0,0,.626-.623,4.96,4.96,0,0,0,1.273-1.693,16.93,16.93,0,0,1,1.15-1.726l.077-.12a29.367,29.367,0,0,0,1.783-3,1.687,1.687,0,0,1,.836-1.014.81.81,0,0,0,.258-.209c.038-.039.082-.085.107-.113.1-.068.874-.393,1.554-.679A24.394,24.394,0,0,0,307.074,630l.056-.063a3.266,3.266,0,0,1,.632-.668,6.363,6.363,0,0,0,1.076-1.235,7.593,7.593,0,0,1,.748-.9c.521-.487.768-.744,1.049-1.038.2-.21.422-.438.762-.771a4.164,4.164,0,0,0,.919-1.022l.147-.174a5.066,5.066,0,0,1,.712-.735c.349-.314.626-.6.923-.907l.255-.271a4.189,4.189,0,0,1,.638-.836c.051-.047.122-.1.2-.166a11.554,11.554,0,0,0-.459,1.752,1.45,1.45,0,0,0-.094.432c-.008.062-.014.127-.026.191l-.009.039.008.144a1.6,1.6,0,0,1-.006.387,3.764,3.764,0,0,0,.035,2.057,4.124,4.124,0,0,0,1.533,2.566,6.8,6.8,0,0,0,1.768,1.031,1.629,1.629,0,0,0,1.551-.168,1.141,1.141,0,0,1,.488-.2l.116-.03a2.73,2.73,0,0,0,2.105-1.756,2.759,2.759,0,0,1,.639-.905,3.632,3.632,0,0,0-.059.571,13.278,13.278,0,0,0-.091,1.519,4.346,4.346,0,0,0-.012.544,1.86,1.86,0,0,1-.059.656,1.314,1.314,0,0,0,.045.976l.045.074v.009a.84.84,0,0,0,.009.085,5.377,5.377,0,0,0,.171,1.531c.032.156.065.308.1.5a7.077,7.077,0,0,0,1.155,2.509c.431.913.621,1.063,1.1,1.354.127.077.278.169.469.3a3.075,3.075,0,0,0,1.291.541l.091.018.079-.057a1.192,1.192,0,0,0,.227-.228l.021-.026a7.978,7.978,0,0,0,.973-.339c.242-.1.49-.193.792-.289.1-.051.216-.1.329-.15a4.279,4.279,0,0,0,.893-.484,5.31,5.31,0,0,0,1.235-.81c.265-.222.541-.5.825-.775a7.317,7.317,0,0,0,.972-1.235,1.12,1.12,0,0,1,.367-.414c.254-.2.481-.408.727-.635.1-.088.195-.175.292-.263v0l.027-.008.109-.029.054-.115c.054-.11.1-.209.141-.3.218-.473.307-.67,1.3-1.5l.8-.62-.125-.239-.054-.1a1.168,1.168,0,0,0,.248-.322,4.325,4.325,0,0,1,1.2-1.007,8.01,8.01,0,0,0,1.037-.747.491.491,0,0,0,.4.014c.255-.106.358-.407.45-.671.071-.206.145-.419.255-.458l.063-.035a1.862,1.862,0,0,0,.364-.346,3.986,3.986,0,0,0,1.449,3.943,4.261,4.261,0,0,1,.583.532,2.753,2.753,0,0,0,2.111.78c.088-.009.172-.014.257-.017a1.837,1.837,0,0,0,1.081-.3l.026.008.071-.029a3.908,3.908,0,0,1,.657-.2,4.784,4.784,0,0,1,.993-.3,3.408,3.408,0,0,0,.843,1.108,1,1,0,0,1,.15.177,3.577,3.577,0,0,0,1.087,1.034c.118.083.236.166.352.257.184.06.369.122.553.184a4.335,4.335,0,0,1,.453.054,2.927,2.927,0,0,0,.754.05,3.268,3.268,0,0,1,.731.07c.165.029.336.057.531.076a2.838,2.838,0,0,0,1.2-.218c.154-.079.322-.151.493-.225a6.3,6.3,0,0,0,.883-.441.46.46,0,0,1,.195-.05,1.776,1.776,0,0,0,.943-.487.637.637,0,0,1,.221-.125l.113-.05c.092-.045.178-.1.265-.153a22.842,22.842,0,0,0,.552,3.78c.082.41.145.73.166.9a6.348,6.348,0,0,0,1.889,2.74l.05.03.056,0a16.745,16.745,0,0,0,3.54-.293c.156-.027.314-.053.452-.072-.358.349-1.049.945-1.953,1.732q-.714.626-1.425,1.251c-.449.376-1.513,1.41-3.128,3.073a3.508,3.508,0,0,1-1.466.7c-1.307.172-2.272.209-3.387.254l-.387.017a18.924,18.924,0,0,1-5.458-.107l-.328-.032c-.4-.039-.858-.085-1.28-.086a1.594,1.594,0,0,0-1.433,1.236,6.624,6.624,0,0,0,1.179,4.393,5.636,5.636,0,0,0,3.939,2.695l.227.08a8.508,8.508,0,0,0,1.575.443,2.517,2.517,0,0,0,.852-.006,11.052,11.052,0,0,0,3.184-1.008,4.361,4.361,0,0,1,.976-.55,5.263,5.263,0,0,0,.748-.388,4.4,4.4,0,0,0,1.632-1.2,15.253,15.253,0,0,1,1.529-1.273l.069-.059a27.342,27.342,0,0,0,2.486-2.309,1.5,1.5,0,0,1,1.05-.694.743.743,0,0,0,.3-.113l.131-.074c.116-.03.926-.086,1.641-.132a22.624,22.624,0,0,0,3.252-.31l.07-.044a2.98,2.98,0,0,1,.768-.431,5.654,5.654,0,0,0,1.336-.825,6.531,6.531,0,0,1,.939-.615c.621-.3.92-.461,1.263-.65.242-.134.508-.28.91-.485a3.7,3.7,0,0,0,1.134-.673l.186-.119a4.519,4.519,0,0,1,.86-.466c.408-.184.745-.364,1.1-.558L378.2,641a3.794,3.794,0,0,1,.821-.589c.109-.051.277-.107.464-.171a2.767,2.767,0,0,0,1.235-.611,7.559,7.559,0,0,1,1.44-.769l.1-.047a.746.746,0,0,0,.4-1.008C382.6,637.653,382.592,637.625,382.719,637.462Zm-58.932-15.384a4.6,4.6,0,0,0-.271,1.141c-.063.172-.113.334-.163.5s-.1.323-.177.538a.56.56,0,0,1-.036.085,1.144,1.144,0,0,0-.063.147,4.464,4.464,0,0,1-.913.89c-.18.147-.366.293-.552.438-.387.305-.786.62-1.115.925l-.138.1a2.785,2.785,0,0,1-.636.4,4.15,4.15,0,0,1,.391-2.681c.119-.163.233-.32.345-.474.219-.307.431-.6.65-.871a2.577,2.577,0,0,0,.2-.24,2.25,2.25,0,0,1,.157-.193l.017-.02c.178-.225.337-.449.491-.667a5.787,5.787,0,0,1,1.138-1.3c1.079-1.218,1.481-1.238,1.542-1.233.012,0,.009,0,.009,0C324.739,619.675,324.681,620.45,323.787,622.078Zm16.185-13.135a1.709,1.709,0,0,1-.322.612,29.038,29.038,0,0,0-2.024,2.285,13.64,13.64,0,0,1-1.33,1.17c-.141.112-.28.224-.416.337a11.131,11.131,0,0,0-1.069,1.046l-.437.47a3.011,3.011,0,0,1-1.01.514,10.345,10.345,0,0,1,1.01-2.107c.189-.335.372-.659.527-.963a8.666,8.666,0,0,1,1.137-1.824,14.344,14.344,0,0,0,.949-1.4,4.742,4.742,0,0,1,.657-.955,2.006,2.006,0,0,0,.407-.942c.035-.116.08-.206.411-.314a3.285,3.285,0,0,0,1.023-.848,1.761,1.761,0,0,0,.707-1.044.77.77,0,0,1,.13-.177c.036-.041.071-.083.1-.125.091-.068.184-.136.281-.206a3.765,3.765,0,0,0,.916-.822.387.387,0,0,1,.145-.071.417.417,0,0,0,.125-.056c.216-.057.283-.03.3-.017s.054.053.085.24a5.146,5.146,0,0,1-.163.84,11.25,11.25,0,0,1-1.767,3.589A1.871,1.871,0,0,0,339.972,608.943ZM286.533,639.1a5.59,5.59,0,0,1,.919-.215l.186-.041c1.02-.222,2.077-.449,3.153-.768a8.915,8.915,0,0,1,2.938-.9h.068c0,.251-.615,1-1.814,2.24l-.029.035a3.97,3.97,0,0,1-4.233,1.812,1.922,1.922,0,0,1-1.513-1.185A1.094,1.094,0,0,1,286.533,639.1Zm60.518,9.646a1.013,1.013,0,0,1,.556-.827,5.519,5.519,0,0,1,.923.1l.166.021c1.026.128,2.089.266,3.193.32a13.474,13.474,0,0,1,2.616.026,2.482,2.482,0,0,1,.453.112c-.065.242-.839.756-2.29,1.542l-.035.024a3.712,3.712,0,0,1-4.46.322A2.137,2.137,0,0,1,347.051,648.745Zm-16.8-15.068,0,.1-.042-.086Z" transform="translate(-283.222 -601.518)"/></g></g></g></g></svg>