<svg xmlns="http://www.w3.org/2000/svg" width="19.661" height="15.999" viewBox="0 0 19.661 15.999"><defs><style>.a{fill:#ff7600;}</style></defs><path class="a" d="M39.761,65.9a8.155,8.155,0,0,1-2.317.637A4.048,4.048,0,0,0,39.22,64.3a8.014,8.014,0,0,1-2.562.979,4.033,4.033,0,0,0-6.979,2.758,3.949,3.949,0,0,0,.1.921,11.432,11.432,0,0,1-8.316-4.221,4.042,4.042,0,0,0,1.254,5.391,3.94,3.94,0,0,1-1.833-.5v.05a4.037,4.037,0,0,0,3.237,3.958,4.061,4.061,0,0,1-1.062.142A3.807,3.807,0,0,1,22.3,73.7a4.04,4.04,0,0,0,3.771,2.8,8.088,8.088,0,0,1-5.012,1.729,8.175,8.175,0,0,1-.962-.058A11.275,11.275,0,0,0,26.275,80,11.409,11.409,0,0,0,37.761,68.508c0-.175,0-.35-.013-.521A8.211,8.211,0,0,0,39.761,65.9Z" transform="translate(-20.1 -64)"/></svg>