<svg xmlns="http://www.w3.org/2000/svg" width="26.333" height="20.974" viewBox="0 0 26.333 20.974"><defs><style>.a{fill:#fff;}</style></defs><path class="a" d="M43.066,17.852c0,.877.019,2.169.058,3.913s.058,3.017.058,3.836c0,1.6-.048,3-.145,4.154A18.055,18.055,0,0,1,42.41,33.3a8.659,8.659,0,0,1-1.349,2.969A6.523,6.523,0,0,1,38.728,38.1a7.943,7.943,0,0,1-3.528.723l-2.641-5.244a5.5,5.5,0,0,0,4.048-1.243,5.56,5.56,0,0,0,1.214-4H32.559V17.852Zm-15.74,0c0,.877.039,2.169.067,3.913.048,1.735.058,3.017.058,3.836,0,1.6-.048,3-.135,4.154a19.6,19.6,0,0,1-.627,3.547,8.847,8.847,0,0,1-1.359,2.969A6.523,6.523,0,0,1,23,38.1a7.943,7.943,0,0,1-3.528.723l-2.622-5.244a5.516,5.516,0,0,0,4.039-1.243,5.56,5.56,0,0,0,1.2-4H16.848V17.852Z" transform="translate(-16.848 -17.852)"/></svg>