<svg xmlns="http://www.w3.org/2000/svg" width="170.962" height="178" viewBox="0 0 170.962 178"><defs><style>.a,.m,.p,.q,.s,.u{isolation:isolate;}.b{fill:#9e2e3b;}.c{fill:#b3b3b3;}.d{fill:#ff4555;}.e{fill:#fff;}.f{fill:#dce1cb;}.g{fill:#999;}.h{fill:#f2f2f2;}.i{fill:#60c1d2;}.j{fill:#0b1017;}.k{fill:#201c3d;}.l,.m{fill:#2d2856;}.m,.q,.u{opacity:0.5;}.m,.p,.q,.s,.u{mix-blend-mode:multiply;}.n,.q{fill:#ffae80;}.o{fill:#c8e6e2;}.p{fill:#d6eeeb;}.r{fill:#291933;}.s,.t,.u{fill:#a263c7;}</style></defs><g transform="translate(-32.937 -324.714)"><g transform="translate(32.937 324.714)"><g transform="translate(45.347 10.739)"><g class="a"><path class="b" d="M94.682,391.4a2,2,0,0,0-2.012-.2l-31.092,18.07a1.994,1.994,0,0,1,2.012.2l30.236,17.457,31.094-18.068Z" transform="translate(-60.742 -294.845)"/><g transform="translate(7.277)"><path class="c" d="M65.572,349.523l31.092-18.068a.859.859,0,0,1,.858.082l-31.094,18.07A.861.861,0,0,0,65.572,349.523Z" transform="translate(-65.572 -331.374)"/></g><g transform="translate(8.133 0.163)"><path class="d" d="M66.1,349.545,97.2,331.475a2.324,2.324,0,0,1,.809.858,145.722,145.722,0,0,1,9.2,19.008c1.772,4.394,3.36,8.87,4.779,13.377a231.567,231.567,0,0,1,6.028,23.376c.926,4.417,1.7,8.756,2.377,12.985,1.211,7.637,2.072,14.917,2.688,21.554.411,4.452.71,8.628.924,12.416.445,7.453.584,13.464.656,17.349L93.566,470.47c-.074-3.885-.211-9.9-.656-17.351-.214-3.788-.513-7.963-.924-12.415-.616-6.637-1.477-13.917-2.69-21.556-.672-4.228-1.45-8.567-2.375-12.984a231.482,231.482,0,0,0-6.028-23.378c-1.419-4.507-3.007-8.982-4.779-13.376a146.135,146.135,0,0,0-9.2-19.008A2.327,2.327,0,0,0,66.1,349.545Z" transform="translate(-66.103 -331.475)"/></g><g transform="translate(0 18.07)"><path class="e" d="M69.192,342.743A2.327,2.327,0,0,1,70,343.6a146.137,146.137,0,0,1,9.2,19.008c1.772,4.394,3.36,8.869,4.779,13.376a231.484,231.484,0,0,1,6.028,23.378c.926,4.417,1.7,8.756,2.375,12.984,1.213,7.638,2.074,14.919,2.69,21.556.411,4.452.71,8.627.924,12.415.445,7.455.582,13.466.656,17.351l-35.6-20.551.006-2.354c.006-1.8,1.277-2.53,2.841-1.627l30.236,17.457q-.193-5.9-.532-11.475-.394-6.429-.951-12.415c-.7-7.559-1.595-14.617-2.641-21.237-.714-4.528-1.513-8.864-2.369-12.989a228.278,228.278,0,0,0-5.874-22.706q-2.307-7.288-4.8-13.389a144.227,144.227,0,0,0-6.639-14.246c-.709-1.317-1.375-2.5-1.993-3.575A2.338,2.338,0,0,1,68,343.409C68,342.6,68.588,342.393,69.192,342.743Z" transform="translate(-61.059 -342.579)"/></g></g><g transform="translate(22.562 21.935)"><path class="f" d="M75.051,358.529l23.32-13.552,3.053.288L78.1,358.816Z" transform="translate(-75.051 -344.977)"/></g><g transform="translate(22.562 35.487)"><path class="b" d="M78.105,353.668l3.96,13.3-2.235-.213c-1.419-4.507-3.007-8.982-4.779-13.376Z" transform="translate(-75.051 -353.381)"/></g><g transform="translate(33.094 57.194)"><path class="g" d="M81.582,380.395l23.32-13.552,2.924,1.088-23.32,13.552Z" transform="translate(-81.582 -366.843)"/><path class="f" d="M81.582,380.395l23.32-13.552,2.924,1.088-23.32,13.552Z" transform="translate(-81.582 -366.843)"/></g><g transform="translate(33.093 70.746)"><path class="b" d="M84.507,376.335,86.3,389.1l-2.34-.864c-.671-4.23-1.45-8.569-2.375-12.985Z" transform="translate(-81.582 -375.247)"/></g><g transform="translate(38.435 93.229)"><path class="g" d="M84.894,402.742l23.32-13.552,2.712,1.363L87.606,404.1Z" transform="translate(-84.894 -389.19)"/><path class="f" d="M84.894,402.742l23.32-13.552,2.712,1.363L87.606,404.1Z" transform="translate(-84.894 -389.19)"/></g><g transform="translate(38.434 106.78)"><path class="b" d="M87.606,398.957l.65,12.281-2.438-1.229c-.214-3.786-.513-7.962-.924-12.415Z" transform="translate(-84.894 -397.594)"/></g><g transform="translate(23.832 9.76)"><path class="e" d="M92.915,337.58l-1.53-.154-15.546,9.034,7.839,26.328,1.537.15,15.547-9.035Z" transform="translate(-75.839 -337.426)"/><path class="h" d="M76.788,346.556l15.546-9.035,7.846,26.323L84.634,372.88Z" transform="translate(-75.258 -337.368)"/></g><g transform="translate(37.136 44.408)"><path class="e" d="M101.221,359.5l-1.585-.591-15.546,9.034,3.581,25.531,1.585.591,15.546-9.035Z" transform="translate(-84.089 -358.914)"/><g transform="translate(1.585 0.591)"><path class="h" d="M85.072,368.315l15.547-9.035,3.581,25.531-15.546,9.035Z" transform="translate(-85.072 -359.28)"/></g></g><g transform="translate(43.18 82.696)"><path class="e" d="M105.321,383.63l-1.937-.972-15.547,9.035,1.278,24.242,1.944.968,15.546-9.035Z" transform="translate(-87.837 -382.658)"/><g transform="translate(1.937 0.972)"><path class="h" d="M89.039,392.3l15.546-9.035L105.87,407.5l-15.546,9.035Z" transform="translate(-89.039 -383.261)"/></g></g><g transform="translate(41.146 94.592)"><path class="i" d="M86.576,403.587l23.32-13.552.649,12.281-23.32,13.552Z" transform="translate(-86.576 -390.035)"/></g><g transform="translate(36.018 58.282)"><path class="i" d="M83.4,381.069l23.32-13.552,1.791,12.761-23.32,13.552Z" transform="translate(-83.396 -367.517)"/></g><g transform="translate(25.616 22.222)"><path class="i" d="M76.945,358.707l23.32-13.552,3.961,13.3-23.32,13.552Z" transform="translate(-76.945 -345.155)"/></g></g><path class="j" d="M50.052,419.43s-.787,4.262-.393,6.1,5.244,3.015,5.244,3.015,6.813,6.411,12.589,5.966c3.41-.263,4.562-1.163,5.1-2.164a3.212,3.212,0,0,0-.637-3.212c-.671-.934-7.737-3.935-9.5-6.753-.861-1.374-2.3-4.262-2.3-4.262l-.59-5.376-9.375-.393.464,6.36Z" transform="translate(-22.762 -271.036)"/><path class="k" d="M44.739,381.557l5.963,29.98a91.08,91.08,0,0,0,1.313,37.423c1.835,4.933,8.379,3.547,12.457,0-1.208-9.733-1.408-21.019-1.18-32.96l1.18-7.842s.976-4.01.918-19.178c-.029-7.793-4.459-24.762-4.459-24.762Z" transform="translate(-25.708 -300.515)"/><path class="j" d="M37.346,424.468c-.709,1.348-.708,3.63-.774,6.942a7.277,7.277,0,0,0,3.922,3.876,12.2,12.2,0,0,0,10.752,7.147c7.438.184,7.382-2.833,7.343-2.82a4.448,4.448,0,0,0-1.7-3.146c-1.067-.9-6.563-5.286-7.54-6.556a16.211,16.211,0,0,1-1.767-3.278l-.331-5.378H37.215Z" transform="translate(-30.711 -265.582)"/><path class="l" d="M55.87,387.531c0,15.185.558,24.162-3.439,31.857a88.06,88.06,0,0,1-1.967,10.228c-1.179,4.044-.976,21.7-.5,32.157-2.069,3.415-6.979,3.965-10.189,1.762a6.769,6.769,0,0,1-2.69-3.73c-2.628-16.412-4.43-29.4,2.061-41.495-2.085-10.605-1.833-21.038-1.18-32.566a33.027,33.027,0,0,1,2.18-17.3A30.722,30.722,0,0,1,41.9,365l27,6.4C66.1,381.079,61.212,386.343,55.87,387.531Z" transform="translate(-31.858 -300.039)"/><path class="m" d="M43.563,418.016c-8.283,8.506-5.892,25.005-3.785,44.2a6.721,6.721,0,0,1-2.69-3.722c-2.628-16.412-4.43-29.4,2.061-41.495-2.085-10.605-1.833-21.038-1.18-32.566a33.027,33.027,0,0,1,2.18-17.3L49.5,377.686C40.2,383.524,38.45,403.863,43.563,418.016Z" transform="translate(-31.858 -298.73)"/><path class="n" d="M61.864,369.048c-.769,1.761-1.514,3.469-2.227,5.1a26.969,26.969,0,0,1-2.952,6.9c-.411,1.588.39,1.659,1.924.813l3.169-4.676a8,8,0,0,1,2.016,3.612l-.859,7.171c.224,1.385.779,1.25,1.475.464l1.269-6.511.116,6.977c.5.589.9.387,1.235-.555l.411-2.006c.348.727.7.592,1.064-.152,0,0,.26-8.406.258-8.538s-2.74-9.815-2.74-9.815l-1.058-2.08-4.184,1.166Z" transform="translate(-18.457 -299.579)"/><path class="e" d="M51.8,345.989c1.492,5.642,1.1,12.55,3.054,20.732,2.649,8.2,3.891,12.534,7.646,21.851.581.9,7.806-.593,7.6-1.556-3.905-17.937-1.619-12.073-4.109-19.818-1.121-5.939-1.2-13.529-1.9-20.745-.418-4.739-2.216-7.311-4.691-8.391C53.811,336.238,48.656,340.682,51.8,345.989Z" transform="translate(-21.97 -316.793)"/><path class="e" d="M69.705,377.335c-.016.155-.032.3-.047.45-.14,1.691-.326,3.477-.513,5.339-.077.729-.155,1.429-.232,2.127.745,3.772-4.842,6.906-10.989,8.769-5.649,1.738-11.779,2.406-14.045,1.6a11.7,11.7,0,0,1-6.642-6.611L36.15,369.327l-.094-1.661L34.1,352.146c3.09-3.755,7.543-7.667,10.647-9.282,7.45-4.967,14.232-7.077,23.31-4.484C70.977,348.142,71.535,357.563,69.705,377.335Z" transform="translate(-32.224 -317.025)"/><path class="o" d="M48.516,347.995l3.438,2.341s2.495-8.945.119-11.281S48.516,347.995,48.516,347.995Z" transform="translate(-23.395 -316.124)"/><path class="n" d="M42.025,343.354l4.239-8.8,10.868,5.428-1.5,6.843C53.51,354.8,40.7,350.112,42.025,343.354Z" transform="translate(-27.429 -318.688)"/><path class="d" d="M50.68,349.215V345.7l-1.791-1.221-.98,2.275.98,3.112c.5,6.555,1.285,17.2.789,24.123l2.915,2.778,2.009-4.552C54.214,365.455,52.121,355.59,50.68,349.215Z" transform="translate(-23.767 -312.608)"/><path class="o" d="M43.489,338.7,41.267,341.4s3.667,10.368,10.241,10.368c.879-2.053,1.448-3.751,1.448-3.751C48.185,347.294,43.489,342.3,43.489,338.7Z" transform="translate(-27.835 -316.149)"/><path class="p" d="M68.88,368.578c-.14,1.691-.326,3.477-.513,5.339-.077.729-.155,1.429-.232,2.127.745,3.772-4.842,6.906-10.989,8.769-5.649,1.738-11.779,2.406-14.045,1.6a11.7,11.7,0,0,1-6.642-6.611L35.372,360.12,45.91,352.3c1.722,7.309,1.148,8.287,2.825,13.766,2.823,1.661,15.441-.977,20.192,2.064C68.833,368.205,68.833,368.346,68.88,368.578Z" transform="translate(-31.446 -307.818)"/><path class="q" d="M56.2,342.108c.961,4.655,1.564,11.358-1.317,11.646-1.883,0-5.391-3.319-7.072-9.017a22.586,22.586,0,0,1-1.013-7.921Z" transform="translate(-24.469 -317.301)"/><path class="n" d="M49.6,345.171l2.753,3.978a3.765,3.765,0,0,0,2.532,1.945,15.334,15.334,0,0,0,6.158.1,2.663,2.663,0,0,0,1.993-1.645,47.387,47.387,0,0,0,.637-5.255,2.5,2.5,0,0,0,1-.908,1.149,1.149,0,0,0-.134-1.314c-.34-.366-2.022-3.441-2.022-3.441l.721-3.228c-.25-5.115-3.307-8.759-10.347-10.32-5.973-1.034-9.91,1.819-11.152,8.138C40.8,341.214,43.229,344.228,49.6,345.171Z" transform="translate(-27.664 -324.611)"/><path class="j" d="M43.768,344.127a4.337,4.337,0,0,0,2.84,1.088,1.282,1.282,0,0,0,1.2-.855l1.09-3.006,2.686-.153a.862.862,0,0,0,.811-.887l-.04-1.171a1.732,1.732,0,0,1,1.361-1.751c4.368-.958,8.429-1.988,9.611-3.71a.974.974,0,0,0,.171-.692c-1.322-8.271-18.471-13.137-21.738-.843A13.316,13.316,0,0,0,43.768,344.127Z" transform="translate(-27.897 -324.714)"/><path class="n" d="M45.993,334.046a1.943,1.943,0,0,0-1.179,1.938,5.706,5.706,0,0,0,.742,2.3,4,4,0,0,0,.779,1.2,1.2,1.2,0,0,0,2.091-.516,3.961,3.961,0,0,0,.131-1.2,5.643,5.643,0,0,0-.4-2.59A1.949,1.949,0,0,0,45.993,334.046Z" transform="translate(-25.663 -319.036)"/><g transform="translate(0 33.515)"><path class="n" d="M63.692,362.72a7.394,7.394,0,0,0,5.254-.21l2.624-1.369c.761.471,1.856-.232,2.961-.966q.975-1.091.132-1.891c.243-.9.208-1.653-.527-2.025a1.48,1.48,0,0,0-.8-1.937,1.764,1.764,0,0,0-1.092-1.964l5.986-3.9c1.288-.835.764-2.282-1.113-1.332l-11.676,6.6a11.722,11.722,0,0,0-4.317,3.606L58.4,361.116l3.706,4.026Z" transform="translate(-17.342 -344.694)"/><path class="e" d="M80.251,364.842c-3.164,4.346-20.216,14.229-26.316,14.13-7.642-5.863-9.341-6.6-17.47-15.641C28.117,350.94,36,338.8,45.437,349.792a102.682,102.682,0,0,1,11.8,15.635c8.433-3.264,18.945-6.648,19.013-6.668C75.559,360.338,78.6,364.638,80.251,364.842Z" transform="translate(-32.937 -345.498)"/></g></g><g transform="translate(144.041 337.382)"><g transform="translate(0 30.142)"><path class="n" d="M110.93,359.287l5.447-.518-.757-1.562-3.467-2.61Z" transform="translate(-96.27 -349.22)"/><path class="r" d="M125.578,370.254,114,351.263l-12.158,5.887,11.581,18.992Z" transform="translate(-101.839 -351.263)"/><path class="e" d="M112.471,373.58l11.022-5.337-10.076-16.476L102.4,357.1Z" transform="translate(-101.498 -350.954)"/><path class="n" d="M109.741,355.362l2.2-.411a4.931,4.931,0,0,0,3.48,2.817l1.151.389a8.129,8.129,0,0,1,.984-1.837c-.194-1.511-1.074-2.891-1.938-3.148l-3.357-.606-4.086,1.472C108.064,354.943,108.419,355.352,109.741,355.362Z" transform="translate(-97.969 -350.464)"/><g transform="translate(2.914 3.845)"><path class="r" d="M109.927,371.775a.7.7,0,0,0,.782-.839L107.115,354.2a.7.7,0,1,0-1.366.293l3.593,16.735A.7.7,0,0,0,109.927,371.775Z" transform="translate(-102.368 -353.647)"/><path class="n" d="M103.659,361.664c-.092.65.334,1.116.326,1.575,0,.181-.042.514-.071.821a4.774,4.774,0,0,0-.032.545c.039,1.087,2.478,2.674,3.273,3.162l3.177,1.511,3.773,3.352.768-1.282,1.833-2.809-2.823-3.425a10.25,10.25,0,0,0-.255-4.784l-1.464-1.771-2.7-1.321.269,1.169a25.309,25.309,0,0,0-2.209-1.317c-.518-.266-1.432-.427-1.821.037-.187.223-.1.713-.258.963-.177.285-.855.574-.995.884-.131.293.081,1.037-.039,1.335C104.267,360.662,103.757,360.972,103.659,361.664Z" transform="translate(-103.646 -351.696)"/><path class="n" d="M107.3,357.31l2.75,2.311-2.563-1.505Z" transform="translate(-101.406 -351.404)"/><path class="n" d="M103.823,361.316a5.064,5.064,0,0,0-.031.543c.039,1.087,2.478,2.673,3.273,3.162l3.177,1.511,3.773,3.352.768-1.282a14.993,14.993,0,0,1-3.944-3.967C108.061,364.618,104.823,363.482,103.823,361.316Z" transform="translate(-103.557 -348.95)"/></g></g><path class="d" d="M117.077,379.606c6.669,3.623,30.673,6,32.692-1.272,6.1-20.006.452-31.291-4.251-33.463C145.518,344.871,114.871,380.269,117.077,379.606Z" transform="translate(-92.575 -325.036)"/><path class="r" d="M111.635,430.108c0-2.7,2.08-3.731,5.163-4.062,2.695,0,6.318,1.2,11.076,2.3l5.426,2.967a12.118,12.118,0,0,1,.4,7.545,5.957,5.957,0,0,1-5.249,1.651l-6.1-2.582-.44-.879C117.051,436.519,111.633,434.312,111.635,430.108Z" transform="translate(-95.838 -275.316)"/><path class="r" d="M123.917,422.93c0-2.2,1.972-2.58,4.913-2.807,5.313,0,5.541,2.661,10.428,2.545l4.8,2.92a14.37,14.37,0,0,1,.21,8.082,6.9,6.9,0,0,1-5.345,1.3l-4.939-2.9-.419-.893C128.932,430.482,123.917,427.037,123.917,422.93Z" transform="translate(-88.316 -278.944)"/><path class="k" d="M141.44,375.3l-17.705,7.4a61.205,61.205,0,0,0,.353,8.285c1.117,8.158,4.407,20.485,4.407,20.485,2.374,10.483,3.325,23.491,3.88,37.205.09,4.936,7.437,9.265,12.141,4.6,1.351-16.735,1.346-32.992-2.591-43.76,1.885-8.5.14-18.141-.389-27.937C141.644,380.308,140.943,375.506,141.44,375.3Z" transform="translate(-88.431 -306.4)"/><path class="l" d="M114.715,403.983a206.986,206.986,0,0,0,3.262,20.456l1.806,37.152a5.815,5.815,0,0,0,2.314,5.681,7.191,7.191,0,0,0,9.569-1.319c2.29-16.707,3.193-32.721-.152-43.47,2.361-8.491,2.245-16.383,2.258-26.171,5.449-2.222,13.884-5.392,13.537-13.988a42.925,42.925,0,0,0-1.446-9.546c-.152-.59-.324-1.18-.51-1.759-.15-.45-.289-.89-.451-1.33-3.007,6.029-12.692,9.788-23.222,8.458-.463-.058-.914-.127-1.377-.208-1.122-.184-2.245-.427-3.378-.729,0,0-.092.6-.242,1.632-.116.845-.279,1.967-.452,3.286C115.432,388.224,114.275,398.487,114.715,403.983Z" transform="translate(-94.011 -309.835)"/><path class="s" d="M114.713,401.119a205.383,205.383,0,0,0,3.269,20.458l1.8,37.162a5.813,5.813,0,0,0,2.337,5.679c-1.619-15.633-2.337-30.291,0-41.635-3.5-12.871-3.718-27.645.3-37.584-.047-3.97-1.84-6.265-1-9.149a40.9,40.9,0,0,1-4.489-1.695S114.057,392.981,114.713,401.119Z" transform="translate(-94.013 -306.977)"/><path class="t" d="M147.105,385.428a12.089,12.089,0,0,0,0,5.742,16.94,16.94,0,0,1,.611,5.229c-3.5,4.95-12.44,9.356-21.646,7.838-.5-.182-1.733-.513-3.185-.908a1.242,1.242,0,0,1-.231-.066c-1.04-.281-2.162-.593-3.219-.874-.148-.034-.279-.082-.411-.116-.381-.116-.727-.214-1.056-.313-.429-.132-.842-.264-1.2-.381-.164-.066-.314-.115-.463-.164-.114-.05-.231-.082-.345-.132-.066-.032.493-7.672.411-7.7-.593-6.65-.561-9.47-.956-17.82,0-.3-.016-.593-.034-.906a13.863,13.863,0,0,0-.148-2.724c-2.838-11.4-.924-12.6,2.1-14.519,9.783-6.2,17.439-14.14,30.11-12.671C157.08,354.174,147.31,384.567,147.105,385.428Z" transform="translate(-94.488 -325.103)"/><path class="n" d="M119.3,343.44c-.619-.693.332-2.3,1.029-2.525.971-.316,1.5,1.088,1.6,1.854a3.555,3.555,0,0,1-.569,2.677c-.661.976-1.695.016-2.02-.771C119.105,344.111,119.691,343.879,119.3,343.44Z" transform="translate(-91.268 -327.487)"/><path class="n" d="M134.36,348.227l-4.328-7.482-11.766,5.773,4.55,8.435C127.073,354.953,135.815,351.026,134.36,348.227Z" transform="translate(-91.777 -327.563)"/><path class="n" d="M124.19,353.032a2.309,2.309,0,0,1-3.885.592c-2.441-2.22-6.437-9.546-5.105-15.43s11.21,2.1,11.21,2.1Z" transform="translate(-93.817 -330.45)"/><path class="j" d="M134.863,350.3a41.639,41.639,0,0,0-8.372,3.836,2.54,2.54,0,0,1-2.906-.127l-1.527-1.155-1.076-3.269-2.366-.95.166-2.441a7.8,7.8,0,0,1-3.539-2.553c-3.175-5.494,3.485-11.544,10.7-11.046C135.155,333.1,137.432,342.977,134.863,350.3Z" transform="translate(-94.126 -332.57)"/><path class="n" d="M117.592,343.842a3.32,3.32,0,0,1-.074-1.047,1.258,1.258,0,0,1,.5-.892,1.312,1.312,0,0,1,1.708.5,3.82,3.82,0,0,1,.472,1.895c.034.474.066.95.1,1.424a2.9,2.9,0,0,1-.079,1.185.992.992,0,0,1-.869.706.972.972,0,0,1-.739-.416,2.641,2.641,0,0,1-.364-.792A20.667,20.667,0,0,1,117.592,343.842Z" transform="translate(-92.246 -326.949)"/><path class="u" d="M122.288,394.257a1.234,1.234,0,0,1-.231-.066c-1.106-.3-2.211-.577-3.219-.874-.148-.034-.279-.082-.411-.116-.381-.116-.727-.214-1.056-.313-.429-.132-.842-.264-1.2-.381-.164-.066-.314-.115-.463-.164-.114-.05-.231-.082-.345-.132-.066-.032.493-7.672.411-7.7-.593-6.65-.561-9.47-.956-17.82l8.366-7.111C125.785,371.52,125.892,380.563,122.288,394.257Z" transform="translate(-93.891 -316.03)"/><path class="d" d="M118.85,354.058c-4.155,2.575-4.489,5.5-4.488,11.97l.282,3.8-3.049-2.843c-3.1-.2-4.484,1.374-4.175,5.2,1.092,6.4,4.267,13.469,9.435,15.288,2.857,1.006,5.853-.276,7.3-5.887l3.5-14.369C128.172,357.641,126.236,352.475,118.85,354.058Z" transform="translate(-98.445 -319.582)"/><path class="d" d="M133.363,346.132l-1.172-1.671c-.76,1.887-4.72,4.309-11.787,6.168l.126,2.24C126.958,354.01,134.817,348.932,133.363,346.132Z" transform="translate(-90.468 -325.286)"/></g></g></svg>